<svg width="20" height="21" viewBox="0 0 20 21" fill="none" xmlns="http://www.w3.org/2000/svg">
<path d="M19.897 15.2761L16.5954 18.7255C16.5236 18.8005 16.4368 18.8602 16.3403 18.901C16.2438 18.9419 16.1397 18.9629 16.0345 18.9629H0.383293C0.308612 18.9629 0.235558 18.9416 0.173109 18.9017C0.110659 18.8618 0.0615326 18.805 0.0317655 18.7383C0.00199847 18.6716 -0.00711249 18.5978 0.00555211 18.5261C0.0182167 18.4544 0.0521051 18.3879 0.103054 18.3347L3.40715 14.8852C3.47873 14.8105 3.56528 14.7509 3.66146 14.7101C3.75766 14.6692 3.86142 14.6481 3.96635 14.6479H19.6167C19.6914 14.6479 19.7644 14.6692 19.8269 14.7091C19.8893 14.749 19.9384 14.8058 19.9683 14.8725C19.998 14.9392 20.0071 15.0129 19.9944 15.0846C19.9818 15.1564 19.9479 15.2229 19.897 15.2761ZM16.5954 8.32984C16.5236 8.25491 16.4368 8.19517 16.3403 8.15434C16.2438 8.11353 16.1397 8.09248 16.0345 8.09254H0.383293C0.308612 8.09254 0.235558 8.11378 0.173109 8.15368C0.110659 8.19359 0.0615326 8.25038 0.0317655 8.31709C0.00199847 8.38382 -0.00711249 8.45756 0.00555211 8.52927C0.0182167 8.60095 0.0521051 8.66749 0.103054 8.72069L3.40715 12.1702C3.47873 12.2449 3.56528 12.3045 3.66146 12.3453C3.75766 12.3861 3.86142 12.4073 3.96635 12.4075H19.6167C19.6914 12.4075 19.7644 12.3862 19.8269 12.3463C19.8893 12.3064 19.9384 12.2496 19.9683 12.1829C19.998 12.1162 20.0071 12.0424 19.9944 11.9707C19.9818 11.899 19.9479 11.8325 19.897 11.7793L16.5954 8.32984ZM0.383293 5.85208H16.0345C16.1397 5.85212 16.2438 5.83109 16.3403 5.79026C16.4368 5.74943 16.5236 5.68969 16.5954 5.61476L19.897 2.16529C19.9479 2.1121 19.9818 2.04557 19.9944 1.97387C20.0071 1.90217 19.998 1.82843 19.9683 1.76171C19.9384 1.69498 19.8893 1.63818 19.8269 1.59829C19.7644 1.55839 19.6914 1.53714 19.6167 1.53714H3.96635C3.86142 1.53731 3.75766 1.55846 3.66146 1.59928C3.56528 1.6401 3.47873 1.69973 3.40715 1.77446L0.103905 5.22392C0.0530061 5.27705 0.0191326 5.34353 0.0064393 5.41513C-0.00625404 5.48676 0.00278463 5.56044 0.0324467 5.62713C0.0621089 5.69382 0.111105 5.75062 0.173426 5.79058C0.235748 5.83054 0.308685 5.8519 0.383293 5.85208Z" fill="url(#paint0_linear_3_2536)"/>
<defs>
<linearGradient id="paint0_linear_3_2536" x1="1.68823" y1="19.3782" x2="17.6224" y2="0.939862" gradientUnits="userSpaceOnUse">
<stop offset="0.08" stop-color="#9945FF"/>
<stop offset="0.3" stop-color="#8752F3"/>
<stop offset="0.5" stop-color="#5497D5"/>
<stop offset="0.6" stop-color="#43B4CA"/>
<stop offset="0.72" stop-color="#28E0B9"/>
<stop offset="0.97" stop-color="#19FB9B"/>
</linearGradient>
</defs>
</svg>
